<svg width="196" height="46" viewBox="0 0 196 46" fill="none" xmlns="http://www.w3.org/2000/svg">
<path d="M15.8108 27.6613H13.8431V25.6931C13.8431 24.8976 13.198 24.2524 12.4025 24.2524C11.607 24.2524 10.9624 24.8976 10.9624 25.6931V27.6613H8.99365C8.19868 27.6613 7.55354 28.3064 7.55354 29.1019C7.55354 29.8974 8.19868 30.542 8.99365 30.542H10.9624V32.5103C10.9624 33.3058 11.607 33.9509 12.4025 33.9509C13.198 33.9509 13.8431 33.3058 13.8431 32.5103V30.542H15.8108C16.6063 30.542 17.2509 29.8974 17.2509 29.1019C17.2509 28.3064 16.6063 27.6613 15.8108 27.6613Z" fill="url(#paint0_linear_2042_5)"/>
<path d="M31.8853 27.6613H25.0681C24.2726 27.6613 23.628 28.3064 23.628 29.1019C23.628 29.8974 24.2726 30.542 25.0681 30.542H31.8853C32.6808 30.542 33.3254 29.8974 33.3254 29.1019C33.3254 28.3064 32.6808 27.6613 31.8853 27.6613Z" fill="url(#paint1_linear_2042_5)"/>
<path d="M35.3976 0.5H5.48109C2.95064 0.5 0.891785 2.55886 0.891785 5.08984V35.0066C0.891785 37.537 2.95064 39.5959 5.48109 39.5959H29.6254C30.6584 39.5959 31.644 39.9822 32.3537 40.6889C33.7226 42.0504 35.6788 44.001 36.1235 44.467C36.8233 45.2001 37.623 45.5 38.3895 45.5C39.1559 45.5 39.9874 44.7002 39.9874 43.3007C39.9874 42.1679 39.9874 36.9535 39.9874 35.0068C39.9874 34.5486 39.9874 34.27 39.9874 34.27V5.08984C39.9874 2.55886 37.9285 0.5 35.3976 0.5ZM5.48109 3.38101H35.3976C36.3399 3.38101 37.1064 4.14745 37.1064 5.08984V18.6077H3.772V5.08984C3.772 4.14745 4.53844 3.38101 5.48109 3.38101ZM5.48109 36.7154C4.5387 36.7154 3.77226 35.9484 3.77226 35.0066V21.4887H37.1064V35.0066C37.1064 35.9484 36.3399 36.7154 35.3976 36.7154H5.48109Z" fill="url(#paint2_linear_2042_5)"/>
<path d="M20.4396 15.8659C21.6022 15.8659 22.7656 15.4612 23.7141 14.6505C24.1025 14.3183 24.1489 13.7337 23.8167 13.3447C23.484 12.9558 22.8999 12.9105 22.511 13.2421C21.3108 14.2679 19.5681 14.2679 18.3679 13.2421C17.979 12.9099 17.3949 12.9558 17.0627 13.3447C16.73 13.7337 16.7764 14.3183 17.1654 14.6505C18.1136 15.4612 19.277 15.8659 20.4396 15.8659Z" fill="url(#paint3_linear_2042_5)"/>
<path d="M13.6171 10.7162C14.4126 10.7162 15.0577 10.0711 15.0577 9.27609C15.0577 8.48059 14.4126 7.83545 13.6171 7.83545C12.8216 7.83545 12.177 8.48059 12.177 9.27609C12.177 10.0713 12.8216 10.7162 13.6171 10.7162Z" fill="url(#paint4_linear_2042_5)"/>
<path d="M27.2616 10.7162C28.0571 10.7162 28.7017 10.0711 28.7017 9.27609C28.7017 8.48059 28.0571 7.83545 27.2616 7.83545C26.4661 7.83545 25.8209 8.48059 25.8209 9.27609C25.8207 10.0713 26.4658 10.7162 27.2616 10.7162Z" fill="url(#paint5_linear_2042_5)"/>
<path d="M52.9049 25.5L57.6089 16.452L53.2169 7.98H57.1769L59.0009 11.82C59.1769 12.172 59.3209 12.492 59.4329 12.78C59.5609 13.068 59.6409 13.276 59.6729 13.404C59.7049 13.276 59.7769 13.068 59.8889 12.78C60.0009 12.492 60.1369 12.172 60.2969 11.82L62.1689 7.98H66.0329L61.6409 16.452L66.3449 25.5H62.3849L60.2729 21.18C60.1129 20.828 59.9689 20.5 59.8409 20.196C59.7129 19.892 59.6169 19.66 59.5529 19.5C59.5049 19.66 59.4249 19.892 59.3129 20.196C59.2009 20.5 59.0569 20.828 58.8809 21.18L56.7689 25.5H52.9049ZM68.3995 25.5V7.98H74.3755C75.6075 7.98 76.6795 8.212 77.5915 8.676C78.5195 9.14 79.2315 9.788 79.7275 10.62C80.2395 11.452 80.4955 12.428 80.4955 13.548C80.4955 14.652 80.2395 15.628 79.7275 16.476C79.2155 17.308 78.5035 17.956 77.5915 18.42C76.6795 18.884 75.6075 19.116 74.3755 19.116H71.9995V25.5H68.3995ZM71.9995 15.876H74.3755C75.1435 15.876 75.7515 15.668 76.1995 15.252C76.6635 14.82 76.8955 14.252 76.8955 13.548C76.8955 12.844 76.6635 12.284 76.1995 11.868C75.7515 11.436 75.1435 11.22 74.3755 11.22H71.9995V15.876ZM83.1261 25.5V7.98H93.9261V11.052H86.6541V14.988H93.0861V18.06H86.6541V22.428H93.9261V25.5H83.1261ZM97.0368 25.5V7.98H101.237L105.773 21.54C105.725 20.948 105.669 20.268 105.605 19.5C105.541 18.716 105.485 17.94 105.437 17.172C105.405 16.388 105.389 15.724 105.389 15.18V7.98H108.557V25.5H104.357L99.8688 11.94C99.9168 12.452 99.9648 13.06 100.013 13.764C100.061 14.468 100.101 15.18 100.133 15.9C100.181 16.62 100.205 17.26 100.205 17.82V25.5H97.0368ZM117.187 25.74C115.955 25.74 114.883 25.532 113.971 25.116C113.059 24.7 112.355 24.116 111.859 23.364C111.363 22.612 111.115 21.724 111.115 20.7H114.715C114.715 21.292 114.939 21.764 115.387 22.116C115.851 22.452 116.475 22.62 117.259 22.62C118.011 22.62 118.595 22.452 119.011 22.116C119.443 21.78 119.659 21.316 119.659 20.724C119.659 20.212 119.499 19.772 119.179 19.404C118.859 19.036 118.411 18.788 117.835 18.66L116.059 18.252C114.571 17.9 113.411 17.252 112.579 16.308C111.763 15.348 111.355 14.18 111.355 12.804C111.355 11.78 111.587 10.892 112.051 10.14C112.531 9.372 113.203 8.78 114.067 8.364C114.931 7.948 115.955 7.74 117.139 7.74C118.931 7.74 120.347 8.188 121.387 9.084C122.443 9.964 122.971 11.156 122.971 12.66H119.371C119.371 12.1 119.171 11.66 118.771 11.34C118.387 11.02 117.827 10.86 117.091 10.86C116.403 10.86 115.875 11.02 115.507 11.34C115.139 11.644 114.955 12.084 114.955 12.66C114.955 13.172 115.099 13.612 115.387 13.98C115.691 14.332 116.115 14.572 116.659 14.7L118.531 15.132C120.083 15.484 121.259 16.124 122.059 17.052C122.859 17.964 123.259 19.132 123.259 20.556C123.259 21.58 123.003 22.484 122.491 23.268C121.995 24.052 121.291 24.66 120.379 25.092C119.483 25.524 118.419 25.74 117.187 25.74ZM126.298 25.5V22.38H129.778V11.1H126.298V7.98H136.858V11.1H133.378V22.38H136.858V25.5H126.298ZM140.449 25.5V7.98H151.729V11.34H144.001V15.228H151.105V18.588H144.049V25.5H140.449ZM158.559 25.5V19.26L153.519 7.98H157.287L159.495 13.26C159.719 13.788 159.911 14.348 160.071 14.94C160.247 15.532 160.367 16.012 160.431 16.38C160.511 16.012 160.623 15.532 160.767 14.94C160.927 14.348 161.111 13.788 161.319 13.26L163.455 7.98H167.199L162.159 19.26V25.5H158.559Z" fill="white"/>
<path d="M53.0143 42.5V35.2H55.0243C55.6776 35.2 56.1909 35.37 56.5643 35.71C56.9376 36.0433 57.1243 36.5033 57.1243 37.09C57.1243 37.4233 57.0543 37.7167 56.9143 37.97C56.7809 38.2167 56.5876 38.41 56.3343 38.55C56.0876 38.6833 55.7876 38.7467 55.4343 38.74V38.6C55.8143 38.6 56.1409 38.6767 56.4143 38.83C56.6943 38.9767 56.9109 39.1933 57.0643 39.48C57.2176 39.76 57.2943 40.0933 57.2943 40.48C57.2943 40.8933 57.2076 41.2533 57.0343 41.56C56.8609 41.86 56.6143 42.0933 56.2943 42.26C55.9743 42.42 55.5909 42.5 55.1443 42.5H53.0143ZM53.7843 41.78H55.0743C55.5209 41.78 55.8709 41.6633 56.1243 41.43C56.3843 41.19 56.5143 40.8667 56.5143 40.46C56.5143 40.04 56.3843 39.7033 56.1243 39.45C55.8709 39.19 55.5209 39.06 55.0743 39.06H53.7843V41.78ZM53.7843 38.37H55.0243C55.4309 38.37 55.7509 38.26 55.9843 38.04C56.2176 37.82 56.3343 37.52 56.3343 37.14C56.3343 36.76 56.2176 36.4633 55.9843 36.25C55.7576 36.03 55.4376 35.92 55.0243 35.92H53.7843V38.37ZM61.0204 42.6C60.4004 42.6 59.9037 42.4133 59.5304 42.04C59.1637 41.6667 58.9804 41.16 58.9804 40.52V37H59.7704V40.52C59.7704 40.9533 59.8804 41.2933 60.1004 41.54C60.327 41.78 60.6337 41.9 61.0204 41.9C61.4137 41.9 61.7237 41.78 61.9504 41.54C62.177 41.2933 62.2904 40.9533 62.2904 40.52V37H63.0804V40.52C63.0804 41.16 62.8937 41.6667 62.5204 42.04C62.147 42.4133 61.647 42.6 61.0204 42.6ZM66.7565 42.6C66.2098 42.6 65.7665 42.4167 65.4265 42.05C65.0931 41.6833 64.9265 41.19 64.9265 40.57V38.94C64.9265 38.3133 65.0931 37.8167 65.4265 37.45C65.7598 37.0833 66.2031 36.9 66.7565 36.9C67.2165 36.9 67.5865 37.0267 67.8665 37.28C68.1531 37.5333 68.2965 37.8733 68.2965 38.3L68.0865 37.97H68.2765L68.2665 36.77V35.2H69.0565V42.5H68.2665V41.53H68.0565L68.2965 41.2C68.2965 41.6333 68.1531 41.9767 67.8665 42.23C67.5865 42.4767 67.2165 42.6 66.7565 42.6ZM67.0065 41.91C67.3998 41.91 67.7065 41.79 67.9265 41.55C68.1531 41.3033 68.2665 40.9633 68.2665 40.53V38.97C68.2665 38.5367 68.1531 38.2 67.9265 37.96C67.7065 37.7133 67.3998 37.59 67.0065 37.59C66.6065 37.59 66.2931 37.71 66.0665 37.95C65.8398 38.19 65.7265 38.53 65.7265 38.97V40.53C65.7265 40.97 65.8398 41.31 66.0665 41.55C66.2931 41.79 66.6065 41.91 67.0065 41.91ZM71.6626 44.3V43.58H73.3326C73.6459 43.58 73.8759 43.5067 74.0226 43.36C74.1759 43.2133 74.2526 42.99 74.2526 42.69V42.05L74.2726 41.01H74.0926L74.2826 40.78C74.2826 41.1933 74.1459 41.5233 73.8726 41.77C73.5992 42.0167 73.2326 42.14 72.7726 42.14C72.2126 42.14 71.7692 41.9567 71.4426 41.59C71.1159 41.2167 70.9526 40.72 70.9526 40.1V38.93C70.9526 38.31 71.1159 37.8167 71.4426 37.45C71.7692 37.0833 72.2126 36.9 72.7726 36.9C73.2326 36.9 73.5992 37.0233 73.8726 37.27C74.1459 37.51 74.2826 37.8367 74.2826 38.25L74.1026 38.02H74.2626V37H75.0426V42.69C75.0426 43.1967 74.8926 43.59 74.5926 43.87C74.2992 44.1567 73.8792 44.3 73.3326 44.3H71.6626ZM73.0026 41.45C73.3959 41.45 73.7026 41.33 73.9226 41.09C74.1492 40.8433 74.2626 40.5033 74.2626 40.07V38.97C74.2626 38.5367 74.1492 38.2 73.9226 37.96C73.7026 37.7133 73.3959 37.59 73.0026 37.59C72.6026 37.59 72.2926 37.71 72.0726 37.95C71.8526 38.19 71.7426 38.53 71.7426 38.97V40.07C71.7426 40.51 71.8526 40.85 72.0726 41.09C72.2926 41.33 72.6026 41.45 73.0026 41.45ZM79.0186 42.6C78.592 42.6 78.222 42.5167 77.9086 42.35C77.5953 42.1767 77.352 41.9333 77.1786 41.62C77.0053 41.3067 76.9186 40.9433 76.9186 40.53V38.97C76.9186 38.55 77.0053 38.1867 77.1786 37.88C77.352 37.5667 77.5953 37.3267 77.9086 37.16C78.222 36.9867 78.592 36.9 79.0186 36.9C79.4453 36.9 79.8153 36.9867 80.1286 37.16C80.442 37.3267 80.6853 37.5667 80.8586 37.88C81.032 38.1867 81.1186 38.55 81.1186 38.97V39.94H77.6986V40.53C77.6986 40.9767 77.812 41.3233 78.0386 41.57C78.272 41.81 78.5986 41.93 79.0186 41.93C79.372 41.93 79.6586 41.86 79.8786 41.72C80.1053 41.58 80.2486 41.3767 80.3086 41.11H81.0986C81.0253 41.57 80.802 41.9333 80.4286 42.2C80.0553 42.4667 79.5853 42.6 79.0186 42.6ZM80.3386 39.41V38.97C80.3386 38.5233 80.2253 38.18 79.9986 37.94C79.772 37.6933 79.4453 37.57 79.0186 37.57C78.5986 37.57 78.272 37.6933 78.0386 37.94C77.812 38.18 77.6986 38.5233 77.6986 38.97V39.32H80.4186L80.3386 39.41ZM85.6147 42.5C85.1547 42.5 84.7981 42.38 84.5447 42.14C84.2914 41.8933 84.1647 41.5467 84.1647 41.1V37.72H82.6047V37H84.1647V35.45H84.9647V37H87.1747V37.72H84.9647V41.1C84.9647 41.5533 85.1814 41.78 85.6147 41.78H87.0747V42.5H85.6147ZM96.2769 42.6C95.7503 42.6 95.3369 42.4533 95.0369 42.16C94.7369 41.8667 94.5869 41.4633 94.5869 40.95V39.74C94.5869 39.3533 94.6836 39.0333 94.8769 38.78C95.0769 38.5267 95.3569 38.3567 95.7169 38.27L95.6469 38.24C95.4269 37.9467 95.2669 37.6767 95.1669 37.43C95.0736 37.1833 95.0269 36.9367 95.0269 36.69C95.0269 36.3767 95.1003 36.1 95.2469 35.86C95.3936 35.62 95.5969 35.4333 95.8569 35.3C96.1236 35.1667 96.4336 35.1 96.7869 35.1C97.1603 35.1 97.4836 35.1733 97.7569 35.32C98.0369 35.46 98.2503 35.6567 98.3969 35.91C98.5503 36.1633 98.6269 36.4633 98.6269 36.81H97.8269C97.8269 36.6033 97.7836 36.4267 97.6969 36.28C97.6103 36.1267 97.4903 36.0067 97.3369 35.92C97.1836 35.8333 97.0003 35.79 96.7869 35.79C96.5936 35.79 96.4236 35.83 96.2769 35.91C96.1303 35.9833 96.0169 36.09 95.9369 36.23C95.8569 36.3633 95.8169 36.5233 95.8169 36.71C95.8169 36.8833 95.8569 37.0733 95.9369 37.28C96.0169 37.48 96.1303 37.6767 96.2769 37.87L98.0169 40.26L98.7669 38.9H99.5869L98.4769 40.89L99.6569 42.5H98.7869L98.0769 41.55C97.5836 42.25 96.9836 42.6 96.2769 42.6ZM96.3269 41.89C96.5803 41.89 96.8203 41.81 97.0469 41.65C97.2736 41.4833 97.4703 41.2467 97.6369 40.94L96.0969 38.85C95.8636 38.8767 95.6836 38.9667 95.5569 39.12C95.4369 39.2733 95.3769 39.48 95.3769 39.74V40.95C95.3769 41.2367 95.4603 41.4667 95.6269 41.64C95.8003 41.8067 96.0336 41.89 96.3269 41.89ZM107.049 42.5V35.2H111.169V35.92H107.839V38.33H110.819V39.04H107.839V41.78H111.169V42.5H107.049ZM112.565 42.5L114.515 39.67L112.685 37H113.615L114.775 38.78C114.815 38.8467 114.855 38.9233 114.895 39.01C114.942 39.09 114.979 39.1533 115.005 39.2C115.032 39.1533 115.065 39.09 115.105 39.01C115.152 38.9233 115.195 38.8467 115.235 38.78L116.395 37H117.315L115.485 39.68L117.425 42.5H116.495L115.255 40.62C115.209 40.5533 115.162 40.4733 115.115 40.38C115.075 40.2867 115.039 40.2133 115.005 40.16C114.979 40.2133 114.939 40.2867 114.885 40.38C114.832 40.4733 114.782 40.5533 114.735 40.62L113.485 42.5H112.565ZM118.961 44.3V37H119.751V37.97H119.961L119.721 38.3C119.721 37.8667 119.861 37.5267 120.141 37.28C120.428 37.0267 120.805 36.9 121.271 36.9C121.825 36.9 122.265 37.0833 122.591 37.45C122.925 37.81 123.091 38.3033 123.091 38.93V40.56C123.091 40.98 123.015 41.3433 122.861 41.65C122.708 41.95 122.495 42.1833 122.221 42.35C121.955 42.5167 121.638 42.6 121.271 42.6C120.811 42.6 120.438 42.4733 120.151 42.22C119.865 41.9667 119.721 41.6267 119.721 41.2L119.931 41.53H119.741L119.751 42.65V44.3H118.961ZM121.021 41.91C121.421 41.91 121.731 41.79 121.951 41.55C122.178 41.31 122.291 40.97 122.291 40.53V38.97C122.291 38.5233 122.178 38.1833 121.951 37.95C121.731 37.71 121.421 37.59 121.021 37.59C120.635 37.59 120.325 37.7133 120.091 37.96C119.865 38.2 119.751 38.5367 119.751 38.97V40.53C119.751 40.9633 119.865 41.3033 120.091 41.55C120.325 41.79 120.635 41.91 121.021 41.91ZM126.987 42.6C126.561 42.6 126.191 42.5167 125.877 42.35C125.564 42.1767 125.321 41.9333 125.147 41.62C124.974 41.3067 124.887 40.9433 124.887 40.53V38.97C124.887 38.55 124.974 38.1867 125.147 37.88C125.321 37.5667 125.564 37.3267 125.877 37.16C126.191 36.9867 126.561 36.9 126.987 36.9C127.414 36.9 127.784 36.9867 128.097 37.16C128.411 37.3267 128.654 37.5667 128.827 37.88C129.001 38.1867 129.087 38.55 129.087 38.97V39.94H125.667V40.53C125.667 40.9767 125.781 41.3233 126.007 41.57C126.241 41.81 126.567 41.93 126.987 41.93C127.341 41.93 127.627 41.86 127.847 41.72C128.074 41.58 128.217 41.3767 128.277 41.11H129.067C128.994 41.57 128.771 41.9333 128.397 42.2C128.024 42.4667 127.554 42.6 126.987 42.6ZM128.307 39.41V38.97C128.307 38.5233 128.194 38.18 127.967 37.94C127.741 37.6933 127.414 37.57 126.987 37.57C126.567 37.57 126.241 37.6933 126.007 37.94C125.781 38.18 125.667 38.5233 125.667 38.97V39.32H128.387L128.307 39.41ZM130.953 42.5V37H131.743V38.02H131.943L131.723 38.31C131.723 37.87 131.857 37.5267 132.123 37.28C132.397 37.0267 132.767 36.9 133.233 36.9C133.78 36.9 134.217 37.0733 134.543 37.42C134.87 37.76 135.033 38.2233 135.033 38.81V42.5H134.243V38.9C134.243 38.48 134.133 38.1567 133.913 37.93C133.693 37.7033 133.393 37.59 133.013 37.59C132.62 37.59 132.31 37.71 132.083 37.95C131.857 38.19 131.743 38.53 131.743 38.97V42.5H130.953ZM138.78 42.59C138.42 42.59 138.103 42.53 137.83 42.41C137.556 42.29 137.34 42.1233 137.18 41.91C137.02 41.69 136.923 41.4367 136.89 41.15H137.68C137.726 41.37 137.843 41.5467 138.03 41.68C138.223 41.8133 138.473 41.88 138.78 41.88H139.27C139.623 41.88 139.89 41.8033 140.07 41.65C140.256 41.49 140.35 41.28 140.35 41.02C140.35 40.7733 140.27 40.5733 140.11 40.42C139.95 40.2667 139.72 40.1667 139.42 40.12L138.59 39.99C138.07 39.9033 137.676 39.7367 137.41 39.49C137.15 39.2433 137.02 38.8967 137.02 38.45C137.02 37.9633 137.176 37.5867 137.49 37.32C137.81 37.0467 138.27 36.91 138.87 36.91H139.26C139.78 36.91 140.196 37.0333 140.51 37.28C140.83 37.5267 141.023 37.86 141.09 38.28H140.29C140.25 38.08 140.14 37.92 139.96 37.8C139.786 37.68 139.553 37.62 139.26 37.62H138.87C138.516 37.62 138.253 37.6933 138.08 37.84C137.906 37.98 137.82 38.1833 137.82 38.45C137.82 38.69 137.893 38.8733 138.04 39C138.186 39.12 138.41 39.2033 138.71 39.25L139.53 39.38C140.076 39.4667 140.483 39.64 140.75 39.9C141.016 40.1533 141.15 40.51 141.15 40.97C141.15 41.47 140.99 41.8667 140.67 42.16C140.35 42.4467 139.883 42.59 139.27 42.59H138.78ZM144.976 42.6C144.549 42.6 144.179 42.5167 143.866 42.35C143.552 42.1767 143.309 41.9333 143.136 41.62C142.962 41.3067 142.876 40.9433 142.876 40.53V38.97C142.876 38.55 142.962 38.1867 143.136 37.88C143.309 37.5667 143.552 37.3267 143.866 37.16C144.179 36.9867 144.549 36.9 144.976 36.9C145.402 36.9 145.772 36.9867 146.086 37.16C146.399 37.3267 146.642 37.5667 146.816 37.88C146.989 38.1867 147.076 38.55 147.076 38.97V39.94H143.656V40.53C143.656 40.9767 143.769 41.3233 143.996 41.57C144.229 41.81 144.556 41.93 144.976 41.93C145.329 41.93 145.616 41.86 145.836 41.72C146.062 41.58 146.206 41.3767 146.266 41.11H147.056C146.982 41.57 146.759 41.9333 146.386 42.2C146.012 42.4667 145.542 42.6 144.976 42.6ZM146.296 39.41V38.97C146.296 38.5233 146.182 38.18 145.956 37.94C145.729 37.6933 145.402 37.57 144.976 37.57C144.556 37.57 144.229 37.6933 143.996 37.94C143.769 38.18 143.656 38.5233 143.656 38.97V39.32H146.376L146.296 39.41ZM156.578 42.5V35.92H154.528V35.19H159.408V35.92H157.368V42.5H156.578ZM161.114 42.5V37H161.894V38.02H162.084L161.804 38.65C161.811 38.09 161.947 37.66 162.214 37.36C162.481 37.0533 162.864 36.9 163.364 36.9C163.944 36.9 164.404 37.0833 164.744 37.45C165.091 37.81 165.264 38.2967 165.264 38.91V39.24H164.454V38.97C164.454 38.5233 164.344 38.18 164.124 37.94C163.904 37.6933 163.591 37.57 163.184 37.57C162.791 37.57 162.481 37.6933 162.254 37.94C162.027 38.1867 161.914 38.53 161.914 38.97V42.5H161.114ZM168.53 42.6C167.95 42.6 167.493 42.4533 167.16 42.16C166.827 41.86 166.66 41.4567 166.66 40.95C166.66 40.45 166.823 40.0567 167.15 39.77C167.477 39.4767 167.917 39.33 168.47 39.33H170.22V38.75C170.22 38.3833 170.113 38.1 169.9 37.9C169.687 37.7 169.383 37.6 168.99 37.6C168.643 37.6 168.353 37.6767 168.12 37.83C167.893 37.9833 167.763 38.19 167.73 38.45H166.93C166.997 37.9767 167.217 37.6 167.59 37.32C167.97 37.04 168.443 36.9 169.01 36.9C169.623 36.9 170.11 37.0667 170.47 37.4C170.83 37.7267 171.01 38.17 171.01 38.73V42.5H170.23V41.43H170.1L170.25 41.27C170.25 41.6767 170.093 42 169.78 42.24C169.467 42.48 169.05 42.6 168.53 42.6ZM168.72 41.96C169.16 41.96 169.52 41.85 169.8 41.63C170.08 41.41 170.22 41.1233 170.22 40.77V39.94H168.48C168.167 39.94 167.917 40.0267 167.73 40.2C167.543 40.3733 167.45 40.61 167.45 40.91C167.45 41.23 167.563 41.4867 167.79 41.68C168.017 41.8667 168.327 41.96 168.72 41.96ZM174.986 42.6C174.559 42.6 174.186 42.5167 173.866 42.35C173.546 42.1833 173.296 41.9467 173.116 41.64C172.943 41.3267 172.856 40.9567 172.856 40.53V38.97C172.856 38.5433 172.943 38.1767 173.116 37.87C173.296 37.5567 173.546 37.3167 173.866 37.15C174.186 36.9833 174.559 36.9 174.986 36.9C175.613 36.9 176.116 37.07 176.496 37.41C176.876 37.75 177.073 38.2133 177.086 38.8H176.296C176.283 38.42 176.159 38.1267 175.926 37.92C175.699 37.7133 175.386 37.61 174.986 37.61C174.579 37.61 174.256 37.73 174.016 37.97C173.776 38.2033 173.656 38.5367 173.656 38.97V40.53C173.656 40.9567 173.776 41.29 174.016 41.53C174.256 41.77 174.579 41.89 174.986 41.89C175.386 41.89 175.699 41.7867 175.926 41.58C176.159 41.3667 176.283 41.0733 176.296 40.7H177.086C177.073 41.2867 176.876 41.75 176.496 42.09C176.116 42.43 175.613 42.6 174.986 42.6ZM178.952 42.5V35.2H179.742V39.31H180.872L182.502 37H183.422L181.572 39.62L183.452 42.5H182.522L180.882 40H179.742V42.5H178.952ZM186.948 42.6C186.522 42.6 186.152 42.5167 185.838 42.35C185.525 42.1767 185.282 41.9333 185.108 41.62C184.935 41.3067 184.848 40.9433 184.848 40.53V38.97C184.848 38.55 184.935 38.1867 185.108 37.88C185.282 37.5667 185.525 37.3267 185.838 37.16C186.152 36.9867 186.522 36.9 186.948 36.9C187.375 36.9 187.745 36.9867 188.058 37.16C188.372 37.3267 188.615 37.5667 188.788 37.88C188.962 38.1867 189.048 38.55 189.048 38.97V39.94H185.628V40.53C185.628 40.9767 185.742 41.3233 185.968 41.57C186.202 41.81 186.528 41.93 186.948 41.93C187.302 41.93 187.588 41.86 187.808 41.72C188.035 41.58 188.178 41.3767 188.238 41.11H189.028C188.955 41.57 188.732 41.9333 188.358 42.2C187.985 42.4667 187.515 42.6 186.948 42.6ZM188.268 39.41V38.97C188.268 38.5233 188.155 38.18 187.928 37.94C187.702 37.6933 187.375 37.57 186.948 37.57C186.528 37.57 186.202 37.6933 185.968 37.94C185.742 38.18 185.628 38.5233 185.628 38.97V39.32H188.348L188.268 39.41ZM191.094 42.5V37H191.874V38.02H192.064L191.784 38.65C191.791 38.09 191.928 37.66 192.194 37.36C192.461 37.0533 192.844 36.9 193.344 36.9C193.924 36.9 194.384 37.0833 194.724 37.45C195.071 37.81 195.244 38.2967 195.244 38.91V39.24H194.434V38.97C194.434 38.5233 194.324 38.18 194.104 37.94C193.884 37.6933 193.571 37.57 193.164 37.57C192.771 37.57 192.461 37.6933 192.234 37.94C192.008 38.1867 191.894 38.53 191.894 38.97V42.5H191.094Z" fill="white"/>
<defs>
<linearGradient id="paint0_linear_2042_5" x1="-4.66633" y1="11.6591" x2="29.2911" y2="46.3611" gradientUnits="userSpaceOnUse">
<stop stop-color="#63C94E"/>
<stop offset="1" stop-color="#15614E"/>
</linearGradient>
<linearGradient id="paint1_linear_2042_5" x1="3.54495" y1="3.62359" x2="37.5025" y2="38.3256" gradientUnits="userSpaceOnUse">
<stop stop-color="#63C94E"/>
<stop offset="1" stop-color="#15614E"/>
</linearGradient>
<linearGradient id="paint2_linear_2042_5" x1="3.96586" y1="3.21304" x2="37.9224" y2="37.9142" gradientUnits="userSpaceOnUse">
<stop stop-color="#63C94E"/>
<stop offset="1" stop-color="#15614E"/>
</linearGradient>
<linearGradient id="paint3_linear_2042_5" x1="7.01592" y1="0.228379" x2="40.9727" y2="34.9297" gradientUnits="userSpaceOnUse">
<stop stop-color="#63C94E"/>
<stop offset="1" stop-color="#15614E"/>
</linearGradient>
<linearGradient id="paint4_linear_2042_5" x1="5.86511" y1="1.3538" x2="39.8237" y2="36.057" gradientUnits="userSpaceOnUse">
<stop stop-color="#63C94E"/>
<stop offset="1" stop-color="#15614E"/>
</linearGradient>
<linearGradient id="paint5_linear_2042_5" x1="12.8358" y1="-5.46592" x2="46.7914" y2="29.2341" gradientUnits="userSpaceOnUse">
<stop stop-color="#63C94E"/>
<stop offset="1" stop-color="#15614E"/>
</linearGradient>
</defs>
</svg>
