<svg width="196" height="45" viewBox="0 0 196 45" fill="none" xmlns="http://www.w3.org/2000/svg">
<path d="M14.9191 27.1613H12.9514V25.1931C12.9514 24.3976 12.3062 23.7524 11.5107 23.7524C10.7152 23.7524 10.0706 24.3976 10.0706 25.1931V27.1613H8.10188C7.30691 27.1613 6.66177 27.8064 6.66177 28.6019C6.66177 29.3974 7.30691 30.042 8.10188 30.042H10.0706V32.0103C10.0706 32.8058 10.7152 33.4509 11.5107 33.4509C12.3062 33.4509 12.9514 32.8058 12.9514 32.0103V30.042H14.9191C15.7146 30.042 16.3592 29.3974 16.3592 28.6019C16.3592 27.8064 15.7146 27.1613 14.9191 27.1613Z" fill="url(#paint0_linear_2043_729)"/>
<path d="M30.9935 27.1613H24.1763C23.3808 27.1613 22.7362 27.8064 22.7362 28.6019C22.7362 29.3974 23.3808 30.042 24.1763 30.042H30.9935C31.789 30.042 32.4336 29.3974 32.4336 28.6019C32.4336 27.8064 31.789 27.1613 30.9935 27.1613Z" fill="url(#paint1_linear_2043_729)"/>
<path d="M34.5058 0H4.58931C2.05886 0 0 2.05886 0 4.58984V34.5066C0 37.037 2.05886 39.0959 4.58931 39.0959H28.7336C29.7667 39.0959 30.7522 39.4822 31.4619 40.1889C32.8308 41.5504 34.787 43.501 35.2317 43.967C35.9315 44.7001 36.7313 45 37.4977 45C38.2641 45 39.0956 44.2002 39.0956 42.8007C39.0956 41.6679 39.0956 36.4535 39.0956 34.5068C39.0956 34.0486 39.0956 33.77 39.0956 33.77V4.58984C39.0956 2.05886 37.0368 0 34.5058 0ZM4.58931 2.88101H34.5058C35.4482 2.88101 36.2146 3.64745 36.2146 4.58984V18.1077H2.88021V4.58984C2.88021 3.64745 3.64665 2.88101 4.58931 2.88101ZM4.58931 36.2154C3.64692 36.2154 2.88048 35.4484 2.88048 34.5066V20.9887H36.2146V34.5066C36.2146 35.4484 35.4482 36.2154 34.5058 36.2154H4.58931Z" fill="url(#paint2_linear_2043_729)"/>
<path d="M19.5478 15.3659C20.7104 15.3659 21.8738 14.9612 22.8223 14.1505C23.2107 13.8183 23.2571 13.2337 22.9249 12.8447C22.5922 12.4558 22.0081 12.4105 21.6192 12.7421C20.419 13.7679 18.6763 13.7679 17.4762 12.7421C17.0872 12.4099 16.5031 12.4558 16.1709 12.8447C15.8382 13.2337 15.8846 13.8183 16.2736 14.1505C17.2218 14.9612 18.3852 15.3659 19.5478 15.3659Z" fill="url(#paint3_linear_2043_729)"/>
<path d="M12.7253 10.2162C13.5208 10.2162 14.1659 9.57105 14.1659 8.77609C14.1659 7.98059 13.5208 7.33545 12.7253 7.33545C11.9298 7.33545 11.2852 7.98059 11.2852 8.77609C11.2852 9.57132 11.9298 10.2162 12.7253 10.2162Z" fill="url(#paint4_linear_2043_729)"/>
<path d="M26.3698 10.2162C27.1653 10.2162 27.8099 9.57105 27.8099 8.77609C27.8099 7.98059 27.1653 7.33545 26.3698 7.33545C25.5743 7.33545 24.9291 7.98059 24.9291 8.77609C24.9289 9.57132 25.574 10.2162 26.3698 10.2162Z" fill="url(#paint5_linear_2043_729)"/>
<path d="M52.0131 25L56.7171 15.952L52.3251 7.48H56.2851L58.1091 11.32C58.2851 11.672 58.4291 11.992 58.5411 12.28C58.6691 12.568 58.7491 12.776 58.7811 12.904C58.8131 12.776 58.8851 12.568 58.9971 12.28C59.1091 11.992 59.2451 11.672 59.4051 11.32L61.2771 7.48H65.1411L60.7491 15.952L65.4531 25H61.4931L59.3811 20.68C59.2211 20.328 59.0771 20 58.9491 19.696C58.8211 19.392 58.7251 19.16 58.6611 19C58.6131 19.16 58.5331 19.392 58.4211 19.696C58.3091 20 58.1651 20.328 57.9891 20.68L55.8771 25H52.0131ZM67.5077 25V7.48H73.4837C74.7157 7.48 75.7877 7.712 76.6997 8.176C77.6277 8.64 78.3397 9.288 78.8357 10.12C79.3477 10.952 79.6037 11.928 79.6037 13.048C79.6037 14.152 79.3477 15.128 78.8357 15.976C78.3237 16.808 77.6117 17.456 76.6997 17.92C75.7877 18.384 74.7157 18.616 73.4837 18.616H71.1077V25H67.5077ZM71.1077 15.376H73.4837C74.2517 15.376 74.8597 15.168 75.3077 14.752C75.7717 14.32 76.0037 13.752 76.0037 13.048C76.0037 12.344 75.7717 11.784 75.3077 11.368C74.8597 10.936 74.2517 10.72 73.4837 10.72H71.1077V15.376ZM82.2344 25V7.48H93.0344V10.552H85.7624V14.488H92.1944V17.56H85.7624V21.928H93.0344V25H82.2344ZM96.145 25V7.48H100.345L104.881 21.04C104.833 20.448 104.777 19.768 104.713 19C104.649 18.216 104.593 17.44 104.545 16.672C104.513 15.888 104.497 15.224 104.497 14.68V7.48H107.665V25H103.465L98.977 11.44C99.025 11.952 99.073 12.56 99.121 13.264C99.169 13.968 99.209 14.68 99.241 15.4C99.289 16.12 99.313 16.76 99.313 17.32V25H96.145ZM116.296 25.24C115.064 25.24 113.992 25.032 113.08 24.616C112.168 24.2 111.464 23.616 110.968 22.864C110.472 22.112 110.224 21.224 110.224 20.2H113.824C113.824 20.792 114.048 21.264 114.496 21.616C114.96 21.952 115.584 22.12 116.368 22.12C117.12 22.12 117.704 21.952 118.12 21.616C118.552 21.28 118.768 20.816 118.768 20.224C118.768 19.712 118.608 19.272 118.288 18.904C117.968 18.536 117.52 18.288 116.944 18.16L115.168 17.752C113.68 17.4 112.52 16.752 111.688 15.808C110.872 14.848 110.464 13.68 110.464 12.304C110.464 11.28 110.696 10.392 111.16 9.64C111.64 8.872 112.312 8.28 113.176 7.864C114.04 7.448 115.064 7.24 116.248 7.24C118.04 7.24 119.456 7.688 120.496 8.584C121.552 9.464 122.08 10.656 122.08 12.16H118.48C118.48 11.6 118.28 11.16 117.88 10.84C117.496 10.52 116.936 10.36 116.2 10.36C115.512 10.36 114.984 10.52 114.616 10.84C114.248 11.144 114.064 11.584 114.064 12.16C114.064 12.672 114.208 13.112 114.496 13.48C114.8 13.832 115.224 14.072 115.768 14.2L117.64 14.632C119.192 14.984 120.368 15.624 121.168 16.552C121.968 17.464 122.368 18.632 122.368 20.056C122.368 21.08 122.112 21.984 121.6 22.768C121.104 23.552 120.4 24.16 119.488 24.592C118.592 25.024 117.528 25.24 116.296 25.24ZM125.406 25V21.88H128.886V10.6H125.406V7.48H135.966V10.6H132.486V21.88H135.966V25H125.406ZM139.557 25V7.48H150.837V10.84H143.109V14.728H150.213V18.088H143.157V25H139.557ZM157.667 25V18.76L152.627 7.48H156.395L158.603 12.76C158.827 13.288 159.019 13.848 159.179 14.44C159.355 15.032 159.475 15.512 159.539 15.88C159.619 15.512 159.731 15.032 159.875 14.44C160.035 13.848 160.219 13.288 160.427 12.76L162.563 7.48H166.307L161.267 18.76V25H157.667Z" fill="#37374F"/>
<path d="M52.1225 42V34.7H54.1325C54.7858 34.7 55.2992 34.87 55.6725 35.21C56.0458 35.5433 56.2325 36.0033 56.2325 36.59C56.2325 36.9233 56.1625 37.2167 56.0225 37.47C55.8892 37.7167 55.6958 37.91 55.4425 38.05C55.1958 38.1833 54.8958 38.2467 54.5425 38.24V38.1C54.9225 38.1 55.2492 38.1767 55.5225 38.33C55.8025 38.4767 56.0192 38.6933 56.1725 38.98C56.3258 39.26 56.4025 39.5933 56.4025 39.98C56.4025 40.3933 56.3158 40.7533 56.1425 41.06C55.9692 41.36 55.7225 41.5933 55.4025 41.76C55.0825 41.92 54.6992 42 54.2525 42H52.1225ZM52.8925 41.28H54.1825C54.6292 41.28 54.9792 41.1633 55.2325 40.93C55.4925 40.69 55.6225 40.3667 55.6225 39.96C55.6225 39.54 55.4925 39.2033 55.2325 38.95C54.9792 38.69 54.6292 38.56 54.1825 38.56H52.8925V41.28ZM52.8925 37.87H54.1325C54.5392 37.87 54.8592 37.76 55.0925 37.54C55.3258 37.32 55.4425 37.02 55.4425 36.64C55.4425 36.26 55.3258 35.9633 55.0925 35.75C54.8658 35.53 54.5458 35.42 54.1325 35.42H52.8925V37.87ZM60.1286 42.1C59.5086 42.1 59.0119 41.9133 58.6386 41.54C58.2719 41.1667 58.0886 40.66 58.0886 40.02V36.5H58.8786V40.02C58.8786 40.4533 58.9886 40.7933 59.2086 41.04C59.4352 41.28 59.7419 41.4 60.1286 41.4C60.5219 41.4 60.8319 41.28 61.0586 41.04C61.2852 40.7933 61.3986 40.4533 61.3986 40.02V36.5H62.1886V40.02C62.1886 40.66 62.0019 41.1667 61.6286 41.54C61.2552 41.9133 60.7552 42.1 60.1286 42.1ZM65.8647 42.1C65.318 42.1 64.8747 41.9167 64.5347 41.55C64.2013 41.1833 64.0347 40.69 64.0347 40.07V38.44C64.0347 37.8133 64.2013 37.3167 64.5347 36.95C64.868 36.5833 65.3113 36.4 65.8647 36.4C66.3247 36.4 66.6947 36.5267 66.9747 36.78C67.2613 37.0333 67.4047 37.3733 67.4047 37.8L67.1947 37.47H67.3847L67.3747 36.27V34.7H68.1647V42H67.3747V41.03H67.1647L67.4047 40.7C67.4047 41.1333 67.2613 41.4767 66.9747 41.73C66.6947 41.9767 66.3247 42.1 65.8647 42.1ZM66.1147 41.41C66.508 41.41 66.8147 41.29 67.0347 41.05C67.2613 40.8033 67.3747 40.4633 67.3747 40.03V38.47C67.3747 38.0367 67.2613 37.7 67.0347 37.46C66.8147 37.2133 66.508 37.09 66.1147 37.09C65.7147 37.09 65.4013 37.21 65.1747 37.45C64.948 37.69 64.8347 38.03 64.8347 38.47V40.03C64.8347 40.47 64.948 40.81 65.1747 41.05C65.4013 41.29 65.7147 41.41 66.1147 41.41ZM70.7708 43.8V43.08H72.4408C72.7541 43.08 72.9841 43.0067 73.1308 42.86C73.2841 42.7133 73.3608 42.49 73.3608 42.19V41.55L73.3808 40.51H73.2008L73.3908 40.28C73.3908 40.6933 73.2541 41.0233 72.9808 41.27C72.7074 41.5167 72.3408 41.64 71.8808 41.64C71.3208 41.64 70.8774 41.4567 70.5508 41.09C70.2241 40.7167 70.0608 40.22 70.0608 39.6V38.43C70.0608 37.81 70.2241 37.3167 70.5508 36.95C70.8774 36.5833 71.3208 36.4 71.8808 36.4C72.3408 36.4 72.7074 36.5233 72.9808 36.77C73.2541 37.01 73.3908 37.3367 73.3908 37.75L73.2108 37.52H73.3708V36.5H74.1508V42.19C74.1508 42.6967 74.0008 43.09 73.7008 43.37C73.4074 43.6567 72.9874 43.8 72.4408 43.8H70.7708ZM72.1108 40.95C72.5041 40.95 72.8108 40.83 73.0308 40.59C73.2574 40.3433 73.3708 40.0033 73.3708 39.57V38.47C73.3708 38.0367 73.2574 37.7 73.0308 37.46C72.8108 37.2133 72.5041 37.09 72.1108 37.09C71.7108 37.09 71.4008 37.21 71.1808 37.45C70.9608 37.69 70.8508 38.03 70.8508 38.47V39.57C70.8508 40.01 70.9608 40.35 71.1808 40.59C71.4008 40.83 71.7108 40.95 72.1108 40.95ZM78.1269 42.1C77.7002 42.1 77.3302 42.0167 77.0169 41.85C76.7035 41.6767 76.4602 41.4333 76.2869 41.12C76.1135 40.8067 76.0269 40.4433 76.0269 40.03V38.47C76.0269 38.05 76.1135 37.6867 76.2869 37.38C76.4602 37.0667 76.7035 36.8267 77.0169 36.66C77.3302 36.4867 77.7002 36.4 78.1269 36.4C78.5535 36.4 78.9235 36.4867 79.2369 36.66C79.5502 36.8267 79.7935 37.0667 79.9669 37.38C80.1402 37.6867 80.2269 38.05 80.2269 38.47V39.44H76.8069V40.03C76.8069 40.4767 76.9202 40.8233 77.1469 41.07C77.3802 41.31 77.7069 41.43 78.1269 41.43C78.4802 41.43 78.7669 41.36 78.9869 41.22C79.2135 41.08 79.3569 40.8767 79.4169 40.61H80.2069C80.1335 41.07 79.9102 41.4333 79.5369 41.7C79.1635 41.9667 78.6935 42.1 78.1269 42.1ZM79.4469 38.91V38.47C79.4469 38.0233 79.3335 37.68 79.1069 37.44C78.8802 37.1933 78.5535 37.07 78.1269 37.07C77.7069 37.07 77.3802 37.1933 77.1469 37.44C76.9202 37.68 76.8069 38.0233 76.8069 38.47V38.82H79.5269L79.4469 38.91ZM84.723 42C84.263 42 83.9063 41.88 83.653 41.64C83.3996 41.3933 83.273 41.0467 83.273 40.6V37.22H81.713V36.5H83.273V34.95H84.073V36.5H86.283V37.22H84.073V40.6C84.073 41.0533 84.2896 41.28 84.723 41.28H86.183V42H84.723ZM95.3851 42.1C94.8585 42.1 94.4451 41.9533 94.1451 41.66C93.8451 41.3667 93.6951 40.9633 93.6951 40.45V39.24C93.6951 38.8533 93.7918 38.5333 93.9851 38.28C94.1851 38.0267 94.4651 37.8567 94.8251 37.77L94.7551 37.74C94.5351 37.4467 94.3751 37.1767 94.2751 36.93C94.1818 36.6833 94.1351 36.4367 94.1351 36.19C94.1351 35.8767 94.2085 35.6 94.3551 35.36C94.5018 35.12 94.7051 34.9333 94.9651 34.8C95.2318 34.6667 95.5418 34.6 95.8951 34.6C96.2685 34.6 96.5918 34.6733 96.8651 34.82C97.1451 34.96 97.3585 35.1567 97.5051 35.41C97.6585 35.6633 97.7351 35.9633 97.7351 36.31H96.9351C96.9351 36.1033 96.8918 35.9267 96.8051 35.78C96.7185 35.6267 96.5985 35.5067 96.4451 35.42C96.2918 35.3333 96.1085 35.29 95.8951 35.29C95.7018 35.29 95.5318 35.33 95.3851 35.41C95.2385 35.4833 95.1251 35.59 95.0451 35.73C94.9651 35.8633 94.9251 36.0233 94.9251 36.21C94.9251 36.3833 94.9651 36.5733 95.0451 36.78C95.1251 36.98 95.2385 37.1767 95.3851 37.37L97.1251 39.76L97.8751 38.4H98.6951L97.5851 40.39L98.7651 42H97.8951L97.1851 41.05C96.6918 41.75 96.0918 42.1 95.3851 42.1ZM95.4351 41.39C95.6885 41.39 95.9285 41.31 96.1551 41.15C96.3818 40.9833 96.5785 40.7467 96.7451 40.44L95.2051 38.35C94.9718 38.3767 94.7918 38.4667 94.6651 38.62C94.5451 38.7733 94.4851 38.98 94.4851 39.24V40.45C94.4851 40.7367 94.5685 40.9667 94.7351 41.14C94.9085 41.3067 95.1418 41.39 95.4351 41.39ZM106.157 42V34.7H110.277V35.42H106.947V37.83H109.927V38.54H106.947V41.28H110.277V42H106.157ZM111.673 42L113.623 39.17L111.793 36.5H112.723L113.883 38.28C113.923 38.3467 113.963 38.4233 114.003 38.51C114.05 38.59 114.087 38.6533 114.113 38.7C114.14 38.6533 114.173 38.59 114.213 38.51C114.26 38.4233 114.303 38.3467 114.343 38.28L115.503 36.5H116.423L114.593 39.18L116.533 42H115.603L114.363 40.12C114.317 40.0533 114.27 39.9733 114.223 39.88C114.183 39.7867 114.147 39.7133 114.113 39.66C114.087 39.7133 114.047 39.7867 113.993 39.88C113.94 39.9733 113.89 40.0533 113.843 40.12L112.593 42H111.673ZM118.07 43.8V36.5H118.86V37.47H119.07L118.83 37.8C118.83 37.3667 118.97 37.0267 119.25 36.78C119.536 36.5267 119.913 36.4 120.38 36.4C120.933 36.4 121.373 36.5833 121.7 36.95C122.033 37.31 122.2 37.8033 122.2 38.43V40.06C122.2 40.48 122.123 40.8433 121.97 41.15C121.816 41.45 121.603 41.6833 121.33 41.85C121.063 42.0167 120.746 42.1 120.38 42.1C119.92 42.1 119.546 41.9733 119.26 41.72C118.973 41.4667 118.83 41.1267 118.83 40.7L119.04 41.03H118.85L118.86 42.15V43.8H118.07ZM120.13 41.41C120.53 41.41 120.84 41.29 121.06 41.05C121.286 40.81 121.4 40.47 121.4 40.03V38.47C121.4 38.0233 121.286 37.6833 121.06 37.45C120.84 37.21 120.53 37.09 120.13 37.09C119.743 37.09 119.433 37.2133 119.2 37.46C118.973 37.7 118.86 38.0367 118.86 38.47V40.03C118.86 40.4633 118.973 40.8033 119.2 41.05C119.433 41.29 119.743 41.41 120.13 41.41ZM126.096 42.1C125.669 42.1 125.299 42.0167 124.986 41.85C124.672 41.6767 124.429 41.4333 124.256 41.12C124.082 40.8067 123.996 40.4433 123.996 40.03V38.47C123.996 38.05 124.082 37.6867 124.256 37.38C124.429 37.0667 124.672 36.8267 124.986 36.66C125.299 36.4867 125.669 36.4 126.096 36.4C126.522 36.4 126.892 36.4867 127.206 36.66C127.519 36.8267 127.762 37.0667 127.936 37.38C128.109 37.6867 128.196 38.05 128.196 38.47V39.44H124.776V40.03C124.776 40.4767 124.889 40.8233 125.116 41.07C125.349 41.31 125.676 41.43 126.096 41.43C126.449 41.43 126.736 41.36 126.956 41.22C127.182 41.08 127.326 40.8767 127.386 40.61H128.176C128.102 41.07 127.879 41.4333 127.506 41.7C127.132 41.9667 126.662 42.1 126.096 42.1ZM127.416 38.91V38.47C127.416 38.0233 127.302 37.68 127.076 37.44C126.849 37.1933 126.522 37.07 126.096 37.07C125.676 37.07 125.349 37.1933 125.116 37.44C124.889 37.68 124.776 38.0233 124.776 38.47V38.82H127.496L127.416 38.91ZM130.062 42V36.5H130.852V37.52H131.052L130.832 37.81C130.832 37.37 130.965 37.0267 131.232 36.78C131.505 36.5267 131.875 36.4 132.342 36.4C132.888 36.4 133.325 36.5733 133.652 36.92C133.978 37.26 134.142 37.7233 134.142 38.31V42H133.352V38.4C133.352 37.98 133.242 37.6567 133.022 37.43C132.802 37.2033 132.502 37.09 132.122 37.09C131.728 37.09 131.418 37.21 131.192 37.45C130.965 37.69 130.852 38.03 130.852 38.47V42H130.062ZM137.888 42.09C137.528 42.09 137.211 42.03 136.938 41.91C136.664 41.79 136.448 41.6233 136.288 41.41C136.128 41.19 136.031 40.9367 135.998 40.65H136.788C136.834 40.87 136.951 41.0467 137.138 41.18C137.331 41.3133 137.581 41.38 137.888 41.38H138.378C138.731 41.38 138.998 41.3033 139.178 41.15C139.364 40.99 139.458 40.78 139.458 40.52C139.458 40.2733 139.378 40.0733 139.218 39.92C139.058 39.7667 138.828 39.6667 138.528 39.62L137.698 39.49C137.178 39.4033 136.784 39.2367 136.518 38.99C136.258 38.7433 136.128 38.3967 136.128 37.95C136.128 37.4633 136.284 37.0867 136.598 36.82C136.918 36.5467 137.378 36.41 137.978 36.41H138.368C138.888 36.41 139.304 36.5333 139.618 36.78C139.938 37.0267 140.131 37.36 140.198 37.78H139.398C139.358 37.58 139.248 37.42 139.068 37.3C138.894 37.18 138.661 37.12 138.368 37.12H137.978C137.624 37.12 137.361 37.1933 137.188 37.34C137.014 37.48 136.928 37.6833 136.928 37.95C136.928 38.19 137.001 38.3733 137.148 38.5C137.294 38.62 137.518 38.7033 137.818 38.75L138.638 38.88C139.184 38.9667 139.591 39.14 139.858 39.4C140.124 39.6533 140.258 40.01 140.258 40.47C140.258 40.97 140.098 41.3667 139.778 41.66C139.458 41.9467 138.991 42.09 138.378 42.09H137.888ZM144.084 42.1C143.657 42.1 143.287 42.0167 142.974 41.85C142.661 41.6767 142.417 41.4333 142.244 41.12C142.071 40.8067 141.984 40.4433 141.984 40.03V38.47C141.984 38.05 142.071 37.6867 142.244 37.38C142.417 37.0667 142.661 36.8267 142.974 36.66C143.287 36.4867 143.657 36.4 144.084 36.4C144.511 36.4 144.881 36.4867 145.194 36.66C145.507 36.8267 145.751 37.0667 145.924 37.38C146.097 37.6867 146.184 38.05 146.184 38.47V39.44H142.764V40.03C142.764 40.4767 142.877 40.8233 143.104 41.07C143.337 41.31 143.664 41.43 144.084 41.43C144.437 41.43 144.724 41.36 144.944 41.22C145.171 41.08 145.314 40.8767 145.374 40.61H146.164C146.091 41.07 145.867 41.4333 145.494 41.7C145.121 41.9667 144.651 42.1 144.084 42.1ZM145.404 38.91V38.47C145.404 38.0233 145.291 37.68 145.064 37.44C144.837 37.1933 144.511 37.07 144.084 37.07C143.664 37.07 143.337 37.1933 143.104 37.44C142.877 37.68 142.764 38.0233 142.764 38.47V38.82H145.484L145.404 38.91ZM155.686 42V35.42H153.636V34.69H158.516V35.42H156.476V42H155.686ZM160.222 42V36.5H161.002V37.52H161.192L160.912 38.15C160.919 37.59 161.056 37.16 161.322 36.86C161.589 36.5533 161.972 36.4 162.472 36.4C163.052 36.4 163.512 36.5833 163.852 36.95C164.199 37.31 164.372 37.7967 164.372 38.41V38.74H163.562V38.47C163.562 38.0233 163.452 37.68 163.232 37.44C163.012 37.1933 162.699 37.07 162.292 37.07C161.899 37.07 161.589 37.1933 161.362 37.44C161.136 37.6867 161.022 38.03 161.022 38.47V42H160.222ZM167.638 42.1C167.058 42.1 166.602 41.9533 166.268 41.66C165.935 41.36 165.768 40.9567 165.768 40.45C165.768 39.95 165.932 39.5567 166.258 39.27C166.585 38.9767 167.025 38.83 167.578 38.83H169.328V38.25C169.328 37.8833 169.222 37.6 169.008 37.4C168.795 37.2 168.492 37.1 168.098 37.1C167.752 37.1 167.462 37.1767 167.228 37.33C167.002 37.4833 166.872 37.69 166.838 37.95H166.038C166.105 37.4767 166.325 37.1 166.698 36.82C167.078 36.54 167.552 36.4 168.118 36.4C168.732 36.4 169.218 36.5667 169.578 36.9C169.938 37.2267 170.118 37.67 170.118 38.23V42H169.338V40.93H169.208L169.358 40.77C169.358 41.1767 169.202 41.5 168.888 41.74C168.575 41.98 168.158 42.1 167.638 42.1ZM167.828 41.46C168.268 41.46 168.628 41.35 168.908 41.13C169.188 40.91 169.328 40.6233 169.328 40.27V39.44H167.588C167.275 39.44 167.025 39.5267 166.838 39.7C166.652 39.8733 166.558 40.11 166.558 40.41C166.558 40.73 166.672 40.9867 166.898 41.18C167.125 41.3667 167.435 41.46 167.828 41.46ZM174.094 42.1C173.668 42.1 173.294 42.0167 172.974 41.85C172.654 41.6833 172.404 41.4467 172.224 41.14C172.051 40.8267 171.964 40.4567 171.964 40.03V38.47C171.964 38.0433 172.051 37.6767 172.224 37.37C172.404 37.0567 172.654 36.8167 172.974 36.65C173.294 36.4833 173.668 36.4 174.094 36.4C174.721 36.4 175.224 36.57 175.604 36.91C175.984 37.25 176.181 37.7133 176.194 38.3H175.404C175.391 37.92 175.268 37.6267 175.034 37.42C174.808 37.2133 174.494 37.11 174.094 37.11C173.688 37.11 173.364 37.23 173.124 37.47C172.884 37.7033 172.764 38.0367 172.764 38.47V40.03C172.764 40.4567 172.884 40.79 173.124 41.03C173.364 41.27 173.688 41.39 174.094 41.39C174.494 41.39 174.808 41.2867 175.034 41.08C175.268 40.8667 175.391 40.5733 175.404 40.2H176.194C176.181 40.7867 175.984 41.25 175.604 41.59C175.224 41.93 174.721 42.1 174.094 42.1ZM178.06 42V34.7H178.85V38.81H179.98L181.61 36.5H182.53L180.68 39.12L182.56 42H181.63L179.99 39.5H178.85V42H178.06ZM186.057 42.1C185.63 42.1 185.26 42.0167 184.947 41.85C184.633 41.6767 184.39 41.4333 184.217 41.12C184.043 40.8067 183.957 40.4433 183.957 40.03V38.47C183.957 38.05 184.043 37.6867 184.217 37.38C184.39 37.0667 184.633 36.8267 184.947 36.66C185.26 36.4867 185.63 36.4 186.057 36.4C186.483 36.4 186.853 36.4867 187.167 36.66C187.48 36.8267 187.723 37.0667 187.897 37.38C188.07 37.6867 188.157 38.05 188.157 38.47V39.44H184.737V40.03C184.737 40.4767 184.85 40.8233 185.077 41.07C185.31 41.31 185.637 41.43 186.057 41.43C186.41 41.43 186.697 41.36 186.917 41.22C187.143 41.08 187.287 40.8767 187.347 40.61H188.137C188.063 41.07 187.84 41.4333 187.467 41.7C187.093 41.9667 186.623 42.1 186.057 42.1ZM187.377 38.91V38.47C187.377 38.0233 187.263 37.68 187.037 37.44C186.81 37.1933 186.483 37.07 186.057 37.07C185.637 37.07 185.31 37.1933 185.077 37.44C184.85 37.68 184.737 38.0233 184.737 38.47V38.82H187.457L187.377 38.91ZM190.203 42V36.5H190.983V37.52H191.173L190.893 38.15C190.899 37.59 191.036 37.16 191.303 36.86C191.569 36.5533 191.953 36.4 192.453 36.4C193.033 36.4 193.493 36.5833 193.833 36.95C194.179 37.31 194.353 37.7967 194.353 38.41V38.74H193.543V38.47C193.543 38.0233 193.433 37.68 193.213 37.44C192.993 37.1933 192.679 37.07 192.273 37.07C191.879 37.07 191.569 37.1933 191.343 37.44C191.116 37.6867 191.003 38.03 191.003 38.47V42H190.203Z" fill="#37374F"/>
<defs>
<linearGradient id="paint0_linear_2043_729" x1="-5.5581" y1="11.1591" x2="28.3993" y2="45.8611" gradientUnits="userSpaceOnUse">
<stop stop-color="#63C94E"/>
<stop offset="1" stop-color="#15614E"/>
</linearGradient>
<linearGradient id="paint1_linear_2043_729" x1="2.65316" y1="3.12359" x2="36.6107" y2="37.8256" gradientUnits="userSpaceOnUse">
<stop stop-color="#63C94E"/>
<stop offset="1" stop-color="#15614E"/>
</linearGradient>
<linearGradient id="paint2_linear_2043_729" x1="3.07408" y1="2.71304" x2="37.0307" y2="37.4142" gradientUnits="userSpaceOnUse">
<stop stop-color="#63C94E"/>
<stop offset="1" stop-color="#15614E"/>
</linearGradient>
<linearGradient id="paint3_linear_2043_729" x1="6.12413" y1="-0.271621" x2="40.0809" y2="34.4297" gradientUnits="userSpaceOnUse">
<stop stop-color="#63C94E"/>
<stop offset="1" stop-color="#15614E"/>
</linearGradient>
<linearGradient id="paint4_linear_2043_729" x1="4.97332" y1="0.853796" x2="38.9319" y2="35.557" gradientUnits="userSpaceOnUse">
<stop stop-color="#63C94E"/>
<stop offset="1" stop-color="#15614E"/>
</linearGradient>
<linearGradient id="paint5_linear_2043_729" x1="11.9441" y1="-5.96592" x2="45.8996" y2="28.7341" gradientUnits="userSpaceOnUse">
<stop stop-color="#63C94E"/>
<stop offset="1" stop-color="#15614E"/>
</linearGradient>
</defs>
</svg>
