<?xml version="1.0" encoding="UTF-8"?>
<svg width="32" height="32" viewBox="0 0 32 32" fill="none" xmlns="http://www.w3.org/2000/svg">
  <rect width="32" height="32" rx="8" fill="url(#gradient)" />
  <path d="M8 16C8 11.5817 11.5817 8 16 8C20.4183 8 24 11.5817 24 16C24 20.4183 20.4183 24 16 24" stroke="white" stroke-width="2" stroke-linecap="round"/>
  <path d="M16 8V24" stroke="white" stroke-width="2" stroke-linecap="round"/>
  <path d="M8 16H24" stroke="white" stroke-width="2" stroke-linecap="round"/>
  <defs>
    <linearGradient id="gradient" x1="0" y1="0" x2="32" y2="32" gradientUnits="userSpaceOnUse">
      <stop offset="0%" stop-color="#22C55E"/>
      <stop offset="100%" stop-color="#15803D"/>
    </linearGradient>
  </defs>
</svg> 
<svg width="32" height="32" viewBox="0 0 32 32" fill="none" xmlns="http://www.w3.org/2000/svg">
  <rect width="32" height="32" rx="8" fill="url(#gradient)" />
  <path d="M8 16C8 11.5817 11.5817 8 16 8C20.4183 8 24 11.5817 24 16C24 20.4183 20.4183 24 16 24" stroke="white" stroke-width="2" stroke-linecap="round"/>
  <path d="M16 8V24" stroke="white" stroke-width="2" stroke-linecap="round"/>
  <path d="M8 16H24" stroke="white" stroke-width="2" stroke-linecap="round"/>
  <defs>
    <linearGradient id="gradient" x1="0" y1="0" x2="32" y2="32" gradientUnits="userSpaceOnUse">
      <stop offset="0%" stop-color="#22C55E"/>
      <stop offset="100%" stop-color="#15803D"/>
    </linearGradient>
  </defs>
</svg> 