<svg width="512" height="512" viewBox="0 0 512 512" fill="none" xmlns="http://www.w3.org/2000/svg">
<rect width="512" height="512" rx="56" fill="url(#paint0_linear_2085_97)"/>
<path d="M220.037 292.255H204.733V276.946C204.733 270.759 199.715 265.741 193.528 265.741C187.341 265.741 182.327 270.759 182.327 276.946V292.255H167.014C160.831 292.255 155.814 297.272 155.814 303.46C155.814 309.647 160.831 314.66 167.014 314.66H182.327V329.969C182.327 336.156 187.341 341.174 193.528 341.174C199.715 341.174 204.733 336.156 204.733 329.969V314.66H220.037C226.224 314.66 231.238 309.647 231.238 303.46C231.238 297.272 226.224 292.255 220.037 292.255Z" fill="white"/>
<path d="M345.061 292.254H292.038C285.851 292.254 280.837 297.272 280.837 303.459C280.837 309.647 285.851 314.66 292.038 314.66H345.061C351.248 314.66 356.261 309.647 356.261 303.459C356.261 297.272 351.248 292.254 345.061 292.254Z" fill="white"/>
<path d="M372.378 81H139.695C120.013 81 104 97.0133 104 116.699V349.385C104 369.066 120.013 385.079 139.695 385.079H327.484C335.518 385.079 343.184 388.084 348.703 393.58C359.351 404.169 374.566 419.341 378.024 422.965C383.467 428.667 389.688 431 395.649 431C401.61 431 408.077 424.78 408.077 413.894C408.077 405.084 408.077 364.527 408.077 349.387C408.077 345.822 408.077 343.656 408.077 343.656V116.699C408.077 97.0133 392.064 81 372.378 81ZM139.695 103.408H372.378C379.708 103.408 385.669 109.369 385.669 116.699V221.838H126.402V116.699C126.402 109.369 132.363 103.408 139.695 103.408ZM139.695 362.675C132.365 362.675 126.404 356.71 126.404 349.385V244.246H385.669V349.385C385.669 356.71 379.708 362.675 372.378 362.675H139.695Z" fill="white"/>
<path d="M256.038 200.512C265.081 200.512 274.129 197.365 281.507 191.059C284.528 188.476 284.888 183.929 282.305 180.903C279.717 177.878 275.174 177.526 272.149 180.105C262.814 188.084 249.26 188.084 239.925 180.105C236.9 177.522 232.357 177.878 229.774 180.903C227.186 183.929 227.547 188.476 230.572 191.059C237.947 197.365 246.996 200.512 256.038 200.512Z" fill="white"/>
<path d="M202.975 160.459C209.162 160.459 214.18 155.441 214.18 149.258C214.18 143.071 209.162 138.053 202.975 138.053C196.787 138.053 191.774 143.071 191.774 149.258C191.774 155.443 196.787 160.459 202.975 160.459Z" fill="white"/>
<path d="M309.098 160.459C315.285 160.459 320.299 155.441 320.299 149.258C320.299 143.071 315.285 138.053 309.098 138.053C302.911 138.053 297.893 143.071 297.893 149.258C297.891 155.443 302.909 160.459 309.098 160.459Z" fill="white"/>
<defs>
<linearGradient id="paint0_linear_2085_97" x1="40.2584" y1="30.8683" x2="421.663" y2="479.5" gradientUnits="userSpaceOnUse">
<stop stop-color="#63C94E"/>
<stop offset="1" stop-color="#15614E"/>
</linearGradient>
</defs>
</svg>
